<svg width="200" height="200" viewBox="0 0 200 200" xmlns="http://www.w3.org/2000/svg">
    <!-- Circle symbolizing the community -->
    <circle cx="100" cy="100" r="80" stroke="#76c7c0" stroke-width="4" fill="none"/>

    <!-- Plant sprout symbolizing gardening -->
    <path d="M100,150 C90,130 70,100 80,80 C90,60 110,60 120,80 C130,100 110,130 100,150 Z" fill="#76c7c0"/>

    <!-- Leaves -->
    <path d="M100,115 C85,110 75,85 85,70 C95,55 115,55 125,70 C135,85 125,110 110,115 Z" fill="#76c7c0"/>
    <path d="M100,115 C115,110 125,85 115,70 C105,55 85,55 75,70 C65,85 75,110 90,115 Z" fill="#76c7c0"/>

    <!-- Sun symbolizing growth -->
    <circle cx="150" cy="40" r="20" fill="#ffeb3b"/>
    <line x1="150" y1="0" x2="150" y2="20" stroke="#ffeb3b" stroke-width="4"/>
    <line x1="150" y1="60" x2="150" y2="80" stroke="#ffeb3b" stroke-width="4"/>
    <line x1="110" y1="40" x2="130" y2="40" stroke="#ffeb3b" stroke-width="4"/>
    <line x1="170" y1="40" x2="190" y2="40" stroke="#ffeb3b" stroke-width="4"/>
    <line x1="130" y1="10" x2="140" y2="20" stroke="#ffeb3b" stroke-width="4"/>
    <line x1="160" y1="60" x2="170" y2="70" stroke="#ffeb3b" stroke-width="4"/>
    <line x1="130" y1="70" x2="140" y2="60" stroke="#ffeb3b" stroke-width="4"/>
    <line x1="160" y1="20" x2="170" y2="10" stroke="#ffeb3b" stroke-width="4"/>
</svg>
